<svg width="951" height="951" viewBox="0 0 951 951" fill="none" xmlns="http://www.w3.org/2000/svg">
<circle cx="475.5" cy="475.5" r="475.5" fill="white"/>
<path d="M463.093 94.8805C453.92 101.373 450.341 103.985 448.998 105.328C448.252 106.074 446.164 107.716 444.375 109.059C442.585 110.403 438.334 113.686 434.903 116.373C431.547 119.059 428.191 121.522 427.52 121.969C426.775 122.343 424.612 124.059 422.524 125.775C420.51 127.417 417.975 129.432 416.93 130.253C415.886 130.999 412.978 133.163 410.591 134.954C408.205 136.745 405.893 138.611 405.446 139.133C405.073 139.581 403.507 140.85 402.015 141.82C400.524 142.79 396.72 145.626 393.588 148.088C390.381 150.551 386.652 153.461 385.236 154.581C383.819 155.625 381.581 157.416 380.239 158.461C378.897 159.506 376.808 161.148 375.541 162.043C370.022 166.073 364.429 170.401 364.056 170.998C363.832 171.297 361.893 172.789 359.73 174.356C355.107 177.789 339.521 189.729 324.158 201.819C320.951 204.281 317.297 207.117 315.88 208.162C314.538 209.207 309.466 213.013 304.768 216.744C299.995 220.4 294.328 224.803 292.165 226.445C290.002 228.087 286.273 230.923 283.887 232.788C279.189 236.445 269.121 244.131 260.321 250.773C247.792 260.25 245.928 263.086 246.002 272.787C246.002 278.683 246.226 279.877 247.866 282.489C250.104 285.847 252.117 287.787 256.294 290.324C258.829 291.817 260.246 292.041 266.063 292.115C274.789 292.115 273.744 292.638 291.717 278.683C293.582 277.265 297.161 274.504 299.772 272.564C302.382 270.549 307.08 266.967 310.212 264.429C313.344 261.967 317.446 258.832 319.311 257.489C321.175 256.221 324.382 253.758 326.395 252.116C328.483 250.474 333.928 246.221 338.626 242.639C343.324 239.057 349.364 234.43 352.049 232.266C354.734 230.102 358.313 227.49 359.954 226.37C361.595 225.251 363.385 223.833 363.981 223.311C364.578 222.714 366.89 220.848 369.127 219.132C371.364 217.415 375.168 214.505 377.554 212.639C379.866 210.774 383.819 207.789 386.205 205.998C388.591 204.132 390.68 202.49 390.903 202.192C391.127 201.893 393.215 200.252 395.602 198.386C400.002 195.028 403.954 191.968 407.832 188.908C408.951 188.013 410.964 186.446 412.232 185.55C414.619 183.908 422.747 177.565 429.086 172.565C431.025 170.998 435.947 167.192 439.9 164.133C443.927 161.073 449.222 156.969 451.683 155.028C454.144 153.088 457.649 150.252 459.513 148.835C461.378 147.417 465.405 144.208 468.463 141.745C471.52 139.283 474.354 137.268 474.802 137.268C475.771 137.268 483.825 143.088 490.537 148.685C491.283 149.357 492.998 150.7 494.341 151.596C497.324 153.76 506.497 160.924 511.344 164.804C513.432 166.446 516.788 168.983 518.802 170.476C520.89 171.894 524.246 174.431 526.259 176.147C528.347 177.789 532.375 180.998 535.208 183.162C543.263 189.356 547.737 192.789 549.378 194.207C550.198 194.879 551.913 196.222 553.256 197.117C554.524 198.087 558.178 200.849 561.385 203.311C564.517 205.774 568.022 208.46 569.141 209.281C571.303 210.848 579.059 216.818 586.666 222.714C589.127 224.654 592.93 227.564 595.168 229.281C597.33 230.997 600.537 233.385 602.252 234.654C603.968 235.848 607.846 238.908 610.903 241.37C613.961 243.833 617.913 246.818 619.629 248.086C621.344 249.28 624.7 251.818 627.012 253.683C629.324 255.549 633.052 258.385 635.215 260.026C637.452 261.668 643.12 265.996 647.819 269.728C652.591 273.384 658.259 277.787 660.422 279.429C662.585 281.071 666.239 283.832 668.551 285.548C676.605 291.668 677.649 292.115 685.48 292.115C692.415 292.115 692.639 292.041 696.815 289.28C703.154 285.175 705.615 280.548 705.615 272.937C705.615 263.459 704.571 261.817 692.564 252.564C691.371 251.594 688.836 249.654 686.971 248.161C685.107 246.669 682.273 244.579 680.632 243.534C678.991 242.415 676.381 240.475 674.89 239.206C671.758 236.594 667.059 232.937 662.958 229.952C661.466 228.833 658.334 226.445 656.022 224.579C653.636 222.714 650.13 220.027 648.191 218.609C643.269 214.953 628.056 203.311 624.7 200.55C622.239 198.535 614.334 192.416 608.964 188.386C606.28 186.296 602.998 183.759 601.656 182.714C600.388 181.595 595.839 178.088 591.588 174.879C583.534 168.76 581.968 167.565 567.351 156.297C558.029 149.133 552.659 144.954 545.649 139.506C543.263 137.641 540.13 135.327 538.639 134.357C537.147 133.387 534.686 131.521 533.195 130.253C527.378 125.477 524.842 123.387 521.785 121.223C516.564 117.492 509.927 112.492 508.585 111.223C507.913 110.552 505.154 108.313 502.395 106.298C499.71 104.209 495.683 101.224 493.595 99.5073C491.432 97.8655 487.927 95.2536 485.69 93.7611C481.886 91.0746 481.513 91 475.175 91H468.612L463.093 94.8805Z" fill="#1814F3"/>
<path d="M363.833 310.101C363.609 310.325 361.446 310.847 359.06 311.146C353.914 311.817 351.527 312.638 343.175 316.593C329.677 323.011 320.355 332.563 313.792 346.593C313.047 348.235 312.077 350.175 311.779 350.846C311.406 351.593 311.108 352.563 311.108 353.011C311.108 353.458 310.66 354.876 310.064 356.145C309.467 357.488 308.721 360.548 308.423 363.01C307.603 369.055 307.603 766.136 308.423 772.703C308.796 775.539 309.541 778.822 310.064 779.942C310.66 781.061 311.108 782.628 311.108 783.449C311.108 784.643 313.569 790.389 315.657 793.971C316.03 794.568 316.85 796.135 317.521 797.479C318.192 798.822 319.162 800.24 319.758 800.762C320.355 801.21 320.803 802.031 320.803 802.479C320.803 803.449 330.423 813.001 334.226 815.762C336.464 817.329 341.833 820.239 351.602 825.015C352.795 825.612 354.436 826.06 355.331 826.06C356.226 826.06 358.463 826.657 360.327 827.403C363.46 828.597 371.141 828.672 475.548 828.672C597.704 828.672 588.382 828.971 599.344 824.791C616.646 818.224 629.026 806.732 636.856 790.016C638.199 787.255 639.243 784.345 639.243 783.598C639.243 782.777 639.541 781.882 639.989 781.658C640.436 781.434 640.734 780.24 640.734 779.121C640.734 777.927 641.256 775.539 641.853 773.822C642.822 771.061 642.972 746.211 642.972 567.857C642.972 389.502 642.822 364.652 641.853 361.891C641.256 360.175 640.734 357.936 640.734 356.966C640.734 355.921 640.436 354.578 640.063 353.831C639.765 353.16 638.87 351.22 638.124 349.578C634.097 340.399 630.294 334.877 623.656 328.31C614.931 319.653 603.446 313.534 591.141 310.922C587.114 310.101 364.653 309.28 363.833 310.101ZM393.738 349.578C393.812 351.22 394.185 353.234 394.558 354.055C399.256 365.398 401.568 368.234 408.802 371.741C418.199 376.219 415.961 376.07 475.548 376.07C535.06 376.07 533.195 376.219 541.921 371.741C546.768 369.353 548.707 367.562 551.541 363.01C554.375 358.533 555.866 354.503 556.389 349.951L556.836 346.593L568.694 346.369C578.165 346.22 581.073 346.444 583.012 347.339C584.355 347.936 585.772 348.458 586.219 348.458C587.86 348.458 592.782 351.667 596.212 355.025C600.463 359.13 602.85 363.01 604.938 368.98C606.429 373.309 606.429 375.1 606.429 568.155C606.429 781.583 606.802 764.793 602.253 774.27C600.239 778.449 594.124 784.792 589.724 787.255C582.639 791.135 588.68 790.986 475.622 790.986C397.466 790.986 369.799 790.762 367.86 790.091C359.06 787.255 351.826 781.21 348.544 774.196C347.575 772.106 346.531 769.867 346.083 769.196C345.711 768.375 345.413 691.138 345.413 568.678C345.413 380.622 345.487 369.353 346.755 366.592C349.589 360.175 354.511 353.906 358.314 351.742C367.263 346.667 368.978 346.294 381.955 346.444L393.514 346.593L393.738 349.578Z" fill="#1814F3"/>
</svg>
