<svg width="25" height="25" viewBox="0 0 25 25" fill="none" xmlns="http://www.w3.org/2000/svg">
    <path d="M8.96582 8.58621V5.17241M8.96582 5.17241C8.96582 6.37221 11.8837 7.34483 15.4831 7.34483C19.0824 7.34483 22.0003 6.37221 22.0003 5.17241M8.96582 5.17241C8.96582 3.97262 11.8837 3 15.4831 3C19.0824 3 22.0003 3.97262 22.0003 5.17241M22.0003 5.17241V10.1379C22.0003 10.6747 21.4164 11.1659 20.4486 11.545" stroke-width="1.5" stroke-linecap="round" stroke-linejoin="round" stroke="#B1B1B1" />
    <path d="M17.0345 13.8621V18.8276C17.0345 20.0274 14.1166 21 10.5172 21C6.91787 21 4 20.0274 4 18.8276V13.8621M17.0345 13.8621C17.0345 15.0619 14.1166 16.0345 10.5172 16.0345C6.91787 16.0345 4 15.0619 4 13.8621M17.0345 13.8621C17.0345 12.6623 14.1166 11.6897 10.5172 11.6897C6.91787 11.6897 4 12.6623 4 13.8621" stroke-width="1.5" stroke-linecap="round" stroke-linejoin="round" stroke="#B1B1B1" />
</svg>
