<svg width="29" height="29" viewBox="0 0 29 29" fill="none" xmlns="http://www.w3.org/2000/svg">
    <path d="M8.32878 21.4959C8.34777 21.464 8.36724 21.4321 8.38717 21.4004C9.8404 19.0902 10.6817 16.3583 10.6817 13.4166C10.6817 11.0465 12.603 9.12505 14.9733 9.12505C17.3435 9.12505 19.2648 11.0465 19.2648 13.4166C19.2648 14.5079 19.1905 15.5823 19.0467 16.6354M16.7749 23.9778C17.4313 22.6679 17.9694 21.2883 18.3752 19.854M22.4941 21.0684C23.1861 18.6369 23.5566 16.07 23.5566 13.4165C23.5566 8.67616 19.7138 4.83334 14.9734 4.83334C13.4101 4.83334 11.9443 5.25132 10.6819 5.98162M5.31738 18.0988C6.00474 16.6838 6.39029 15.0952 6.39029 13.4165C6.39029 11.8532 6.80826 10.3874 7.53855 9.12493M14.9733 13.4167C14.9733 17.1904 13.891 20.7112 12.0199 23.6856" stroke="#B1B1B1" stroke-width="2.41667" stroke-linecap="round" stroke-linejoin="round"/>
</svg>
