<svg width="25" height="25" viewBox="0 0 25 25" fill="none" xmlns="http://www.w3.org/2000/svg">
    <path d="M10.2707 0.0102542C9.76639 0.0794037 9.25211 0.0414914 8.74702 0.130177C7.34853 0.375779 5.87375 0.893094 4.69163 1.7197C2.2794 3.40646 0.604373 6.08042 0.125787 9.08073C-0.0103774 9.93451 -0.0174883 10.7853 0.0184806 11.6436C0.0362111 12.0673 0.0873251 12.4793 0.130359 12.9009C0.145042 13.0446 0.118538 13.1946 0.146011 13.3361C0.175793 13.4894 0.266939 13.6226 0.312143 13.7713C0.403243 14.0711 0.431269 14.3952 0.524816 14.6901C0.578931 14.8605 0.690762 15.0081 0.75836 15.1736C1.01337 15.7984 1.25232 16.4441 1.62923 17.0093C2.59153 18.4522 3.77079 19.644 5.23786 20.5066C5.48364 20.651 5.71418 20.8475 5.97483 20.9612C6.65325 21.2574 7.38288 21.5334 8.1006 21.7015C8.35603 21.7614 8.6821 21.7075 8.92303 21.8274C9.05897 21.8951 9.02877 22.0547 9.02568 22.1853C9.01806 22.5034 8.97419 22.8474 9.07393 23.1524C9.46054 24.3344 10.5977 25.1545 11.7945 24.9754C12.6578 24.8462 13.1942 24.201 13.7799 23.5876C14.7489 22.5728 15.6745 21.5084 16.6426 20.4928C17.4529 19.6429 18.226 18.7448 19.0779 17.944C19.2484 17.7836 19.3526 17.559 19.5516 17.4272C19.7789 17.2766 20.0437 17.4044 20.2903 17.393C20.8194 17.3686 21.4581 17.3043 21.9526 17.0922C23.8085 16.2964 25 14.35 25 12.2723C25 11.6728 24.9429 11.0876 24.7097 10.5315C24.5026 10.0378 23.8683 9.88234 23.4301 10.1487C23.1304 10.3308 22.8998 10.647 22.6794 10.9184C22.3819 11.2847 22.0489 11.6956 21.7157 12.0251C21.5157 12.2228 20.8252 12.1442 20.6791 11.8783C20.579 11.6962 20.4186 11.2218 20.465 11.015C20.5132 10.8011 20.7402 10.5979 20.8717 10.4347C21.1354 10.1073 21.4107 9.78717 21.6832 9.46758C22.0094 9.08494 22.2957 8.70544 22.1399 8.16196C22.0044 7.68923 21.5371 7.51883 21.1214 7.42714C20.9453 7.38831 20.6431 7.39208 20.5275 7.22787C20.3136 6.92404 20.2257 6.42878 20.0696 6.08264C19.7364 5.34395 19.3343 4.66948 18.8588 4.02402C18.6306 3.7144 18.3376 3.45743 18.074 3.18127C16.569 1.60456 14.7145 0.605568 12.6256 0.211028C12.0533 0.102904 11.4962 0.0627685 10.9172 0.0362209C10.696 0.0260661 10.4935 -0.0202586 10.2707 0.0102542ZM18.8128 7.72676C17.0678 8.40815 15.9421 10.0986 15.8156 12.0305C15.7984 12.2947 15.7753 12.6112 15.8137 12.873C15.848 13.1081 15.9277 13.3232 15.9425 13.564C15.9522 13.7208 16.0416 13.9095 15.9864 14.0614C15.9114 14.2682 15.6801 14.4409 15.5345 14.5934L14.5187 15.6572C13.5664 16.6545 12.6109 17.652 11.656 18.6553C11.3908 18.9339 11.1006 19.1962 10.8444 19.4818C10.6931 19.6505 10.5448 19.8922 10.3499 20.0079C10.1668 20.1166 9.82609 20.0688 9.62431 20.0438C9.39326 20.0152 9.21042 19.9311 8.99105 19.8718C8.82385 19.8265 8.64068 19.8695 8.46998 19.8405C8.25989 19.8049 8.08139 19.6857 7.87758 19.633C6.78808 19.3519 5.81885 18.7378 4.95297 18.0003C3.3925 16.6713 2.22408 14.8097 1.8873 12.7075C1.55734 10.6475 1.7992 8.46825 2.75877 6.61456C2.91631 6.31016 3.11781 6.06939 3.30569 5.79077C3.88258 4.93549 4.46464 4.20482 5.28583 3.58494C8.30948 1.30267 12.8394 1.30219 15.857 3.61841C16.1027 3.807 16.2902 4.06817 16.5166 4.27949C16.6066 4.36343 16.7258 4.3893 16.8141 4.47117C17.1542 4.7864 17.4063 5.2219 17.6758 5.59908C18.1333 6.23966 18.5656 6.96785 18.8128 7.72676ZM6.94627 8.13624C6.16677 8.29451 5.99103 9.57813 6.76162 9.89563C6.96233 9.97832 7.1968 9.95115 7.408 9.95115H8.46998H12.3024H13.549C13.7565 9.95115 14.0005 9.98674 14.1955 9.89849C14.9537 9.55526 14.828 8.27991 14.0108 8.12952C13.5996 8.05384 13.135 8.11361 12.7179 8.11361H10.2246H8.1006C7.72747 8.11361 7.31357 8.06167 6.94627 8.13624ZM19.2745 9.51594C19.1872 9.68867 19.0456 9.79544 18.944 9.95545C18.7962 10.1883 18.7076 10.5452 18.6824 10.8216C18.6282 11.4179 18.9334 12.0974 19.0899 12.6591C19.152 12.8821 19.1982 13.1914 19.3444 13.3719C19.5527 13.629 19.8988 13.7315 20.198 13.8027C20.8073 13.9479 21.422 14.2169 22.0449 14.0377C22.2569 13.9768 22.5135 13.8522 22.6794 13.699C22.874 13.5191 22.9936 13.268 23.1992 13.0943C22.8589 14.3122 21.8659 15.3728 20.6135 15.5039C20.3321 15.5334 20.0178 15.5324 19.7363 15.5039C19.395 15.4693 19.1208 15.3666 18.8128 15.5919C18.1523 16.0749 17.6025 16.8359 17.0557 17.4463C16.7734 17.7615 16.4305 18.0117 16.1407 18.3185C15.7182 18.7658 15.342 19.2625 14.9283 19.7165C14.7054 19.961 14.4374 20.1586 14.2163 20.4086C13.9711 20.6859 13.7606 21.0009 13.5026 21.2656C13.1292 21.6489 12.7288 22.0026 12.3604 22.3912C12.1641 22.5984 12.048 22.8169 11.7945 22.9644C11.4257 23.1788 10.95 23.0941 10.8088 22.6205C10.7014 22.2606 10.9227 21.9895 11.1482 21.7501C11.5456 21.3282 11.9484 20.9118 12.3485 20.4928C12.9062 19.9088 13.4924 19.3683 14.051 18.7944C14.7006 18.1268 15.3025 17.3992 15.95 16.721L17.1044 15.5121C17.3254 15.2806 17.5813 15.0572 17.7599 14.7868C18.1706 14.1645 17.6595 13.4976 17.5795 12.8525C17.4133 11.5133 18.0435 10.0609 19.2745 9.51594ZM6.99244 12.0035C6.15042 12.1532 5.97123 13.4838 6.80775 13.8069C7.29764 13.9961 7.9992 13.868 8.51616 13.868H12.2562H13.4567C13.6993 13.868 13.9681 13.8956 14.1955 13.7881C14.9723 13.421 14.8014 12.1276 13.9646 11.9967C13.5624 11.9338 13.1242 11.9821 12.7179 11.9821H10.2707H8.14677C7.77046 11.9821 7.36423 11.9374 6.99244 12.0035Z" fill="#1814F3"/>
</svg>
