<svg width="30" height="30" viewBox="0 0 30 30" fill="none" xmlns="http://www.w3.org/2000/svg">
    <path d="M19.5391 8.94396C19.8774 8.81852 20.2433 8.75 20.6253 8.75C22.3512 8.75 23.7503 10.1491 23.7503 11.875C23.7503 13.6009 22.3512 15 20.6253 15C20.2433 15 19.8774 14.9315 19.5391 14.806" stroke="#B1B1B1" stroke-width="2.5" stroke-linecap="round"/>
    <path d="M3.75 23.75C4.61421 20.866 6.83747 20 11.875 20C16.9125 20 19.1358 20.866 20 23.75" stroke="#B1B1B1" stroke-width="2.5" stroke-linecap="round"/>
    <path d="M21.25 18.75C24.2538 18.8687 25.6615 19.5479 26.25 21.25" stroke="#B1B1B1" stroke-width="2.5" stroke-linecap="round"/>
    <path d="M16.25 11.875C16.25 14.2912 14.2912 16.25 11.875 16.25C9.45875 16.25 7.5 14.2912 7.5 11.875C7.5 9.45875 9.45875 7.5 11.875 7.5C14.2912 7.5 16.25 9.45875 16.25 11.875Z" stroke="#B1B1B1" stroke-width="2.5"/>
</svg>
