<svg width="23" height="23" viewBox="0 0 23 23" fill="none" xmlns="http://www.w3.org/2000/svg">
    <path d="M11.5014 0C5.14992 0 0.000976562 5.14812 0.000976562 11.4979C0.000976562 17.8511 5.14992 23 11.5014 23C17.8529 23 23.0002 17.8502 23.0002 11.4979C23.0002 5.14812 17.8529 0 11.5014 0ZM11.5014 21.8222C5.79889 21.8222 1.17882 17.1996 1.17882 11.4971C1.17882 5.79709 5.79889 1.1762 11.5014 1.1762C17.2022 1.1762 21.8231 5.79709 21.8231 11.4971C21.8223 17.1996 17.2014 21.8222 11.5014 21.8222Z" fill="#A7A7A7"/>
    <path d="M12.814 14.1125L13.3174 3.76611H9.70898L10.2107 14.1125H12.814Z" fill="#A7A7A7"/>
    <path d="M11.5133 15.2544C10.3034 15.2544 9.45703 16.1008 9.45703 17.3321C9.45703 18.519 10.2787 19.4114 11.4673 19.4114H11.5133C12.7463 19.4114 13.5441 18.519 13.5441 17.3321C13.5227 16.1008 12.7224 15.2544 11.5133 15.2544Z" fill="#A7A7A7"/>
</svg>
