<svg width="1408" height="698" viewBox="0 0 1408 698" fill="none" xmlns="http://www.w3.org/2000/svg">
    <path d="M217.613 5.53974C208.44 12.0321 204.861 14.644 203.518 15.9873C202.772 16.7335 200.684 18.3753 198.895 19.7185C197.105 21.0618 192.854 24.3453 189.423 27.0318C186.067 29.7183 182.711 32.181 182.04 32.6287C181.295 33.0018 179.132 34.7182 177.044 36.4346C175.03 38.0764 172.495 40.0912 171.45 40.9121C170.406 41.6584 167.498 43.8225 165.111 45.6135C162.725 47.4045 160.413 49.2701 159.966 49.7925C159.593 50.2403 158.027 51.5089 156.535 52.479C155.044 53.4492 151.24 56.2849 148.108 58.7476C144.901 61.2102 141.172 64.1206 139.756 65.24C138.339 66.2847 136.101 68.0757 134.759 69.1205C133.417 70.1652 131.328 71.807 130.061 72.7025C124.542 76.7322 118.949 81.0605 118.576 81.6575C118.352 81.956 116.413 83.4485 114.25 85.0156C109.627 88.4484 94.0403 100.388 78.6776 112.478C75.4708 114.94 71.8165 117.776 70.3996 118.821C69.0572 119.866 63.986 123.672 59.2877 127.403C54.5148 131.059 48.8471 135.462 46.6843 137.104C44.5216 138.746 40.7928 141.582 38.4064 143.447C33.7081 147.104 23.6403 154.79 14.8403 161.432C2.31145 170.909 0.447048 173.745 0.521624 183.446C0.521624 189.342 0.745353 190.536 2.38603 193.148C4.62332 196.506 6.63688 198.446 10.8131 200.983C13.3487 202.476 14.7657 202.7 20.5826 202.774C29.3081 202.774 28.264 203.297 46.2369 189.342C48.1013 187.924 51.6809 185.163 54.2911 183.223C56.9013 181.208 61.5996 177.626 64.7318 175.088C67.864 172.626 71.9657 169.491 73.8301 168.148C75.6945 166.88 78.9013 164.417 80.9148 162.775C83.003 161.133 88.4471 156.88 93.1454 153.298C97.8437 149.716 103.884 145.089 106.569 142.925C109.254 140.761 112.833 138.149 114.474 137.029C116.115 135.91 117.905 134.492 118.501 133.97C119.098 133.373 121.41 131.507 123.647 129.791C125.884 128.074 129.688 125.164 132.074 123.298C134.386 121.433 138.339 118.448 140.725 116.657C143.111 114.791 145.2 113.149 145.423 112.851C145.647 112.552 147.735 110.911 150.122 109.045C154.522 105.687 158.474 102.627 162.352 99.5676C163.471 98.6721 165.484 97.1049 166.752 96.2094C169.139 94.5677 177.267 88.2245 183.606 83.2246C185.545 81.6575 190.467 77.8516 194.42 74.792C198.447 71.7324 203.742 67.628 206.203 65.6877C208.664 63.7474 212.169 60.9117 214.033 59.4938C215.898 58.0759 219.925 54.867 222.983 52.4044C226.04 49.9418 228.874 47.9269 229.322 47.9269C230.291 47.9269 238.345 53.7477 245.057 59.3446C245.803 60.0162 247.518 61.3594 248.861 62.2549C251.844 64.4191 261.017 71.5831 265.864 75.4636C267.952 77.1054 271.308 79.6426 273.322 81.1351C275.41 82.553 278.766 85.0903 280.779 86.8067C282.867 88.4484 286.895 91.6573 289.728 93.8214C297.783 100.015 302.257 103.448 303.898 104.866C304.718 105.538 306.433 106.881 307.776 107.776C309.044 108.746 312.698 111.508 315.905 113.97C319.037 116.433 322.542 119.119 323.661 119.94C325.823 121.507 333.579 127.477 341.186 133.373C343.647 135.313 347.45 138.223 349.688 139.94C351.85 141.656 355.057 144.044 356.772 145.313C358.488 146.507 362.366 149.567 365.423 152.029C368.481 154.492 372.433 157.477 374.149 158.745C375.864 159.939 379.22 162.477 381.532 164.342C383.844 166.208 387.572 169.044 389.735 170.685C391.972 172.327 397.64 176.655 402.339 180.387C407.111 184.043 412.779 188.446 414.942 190.088C417.105 191.73 420.759 194.491 423.071 196.207C431.125 202.327 432.169 202.774 440 202.774C446.935 202.774 447.159 202.7 451.335 199.939C457.674 195.834 460.135 191.207 460.135 183.596C460.135 174.118 459.091 172.476 447.084 163.223C445.891 162.253 443.356 160.313 441.491 158.82C439.627 157.328 436.793 155.238 435.152 154.193C433.511 153.074 430.901 151.134 429.41 149.865C426.278 147.253 421.579 143.596 417.478 140.611C415.986 139.492 412.854 137.104 410.542 135.238C408.156 133.373 404.65 130.686 402.711 129.268C397.789 125.612 382.576 113.97 379.22 111.209C376.759 109.194 368.854 103.075 363.484 99.0452C360.8 96.9557 357.518 94.4184 356.176 93.3737C354.908 92.2543 350.359 88.7469 346.108 85.538C338.054 79.4188 336.488 78.2247 321.871 66.9563C312.549 59.7923 307.179 55.6133 300.169 50.1656C297.783 48.3 294.65 45.9866 293.159 45.0165C291.667 44.0464 289.206 42.1807 287.715 40.9121C281.898 36.1361 279.362 34.0466 276.305 31.8825C271.084 28.1512 264.447 23.1513 263.105 21.8827C262.433 21.211 259.674 18.9723 256.915 16.9574C254.23 14.8679 250.203 11.8829 248.115 10.1665C245.952 8.52475 242.447 5.91286 240.21 4.42036C236.406 1.73385 236.033 1.65922 229.695 1.65922H223.132L217.613 5.53974Z" fill="black"/>
    <path d="M118.353 170.76C118.129 170.984 115.966 171.506 113.58 171.805C108.434 172.476 106.047 173.297 97.6949 177.252C84.1966 183.67 74.8746 193.222 68.3119 207.252C67.5661 208.894 66.5966 210.834 66.2983 211.505C65.9255 212.252 65.6271 213.222 65.6271 213.67C65.6271 214.117 65.1797 215.535 64.5831 216.804C63.9865 218.147 63.2407 221.207 62.9424 223.669C62.1221 229.714 62.1221 626.795 62.9424 633.362C63.3153 636.198 64.061 639.481 64.5831 640.601C65.1797 641.72 65.6271 643.287 65.6271 644.108C65.6271 645.302 68.0882 651.048 70.1763 654.63C70.5492 655.227 71.3695 656.794 72.0407 658.138C72.7119 659.481 73.6814 660.899 74.278 661.421C74.8746 661.869 75.3221 662.69 75.3221 663.138C75.3221 664.108 84.9424 673.66 88.7458 676.421C90.9831 677.988 96.3526 680.898 106.122 685.674C107.315 686.271 108.956 686.719 109.851 686.719C110.746 686.719 112.983 687.316 114.847 688.062C117.98 689.256 125.661 689.331 230.068 689.331C352.224 689.331 342.902 689.63 353.864 685.45C371.166 678.883 383.546 667.391 391.376 650.675C392.719 647.914 393.763 645.004 393.763 644.257C393.763 643.436 394.061 642.541 394.509 642.317C394.956 642.093 395.254 640.899 395.254 639.78C395.254 638.586 395.776 636.198 396.373 634.481C397.342 631.72 397.492 606.87 397.492 428.516C397.492 250.161 397.342 225.311 396.373 222.55C395.776 220.834 395.254 218.595 395.254 217.625C395.254 216.58 394.956 215.237 394.583 214.49C394.285 213.819 393.39 211.879 392.644 210.237C388.617 201.058 384.814 195.536 378.176 188.969C369.451 180.312 357.966 174.193 345.661 171.581C341.634 170.76 119.173 169.939 118.353 170.76ZM148.258 210.237C148.332 211.879 148.705 213.893 149.078 214.714C153.776 226.057 156.088 228.893 163.322 232.4C172.719 236.878 170.481 236.729 230.068 236.729C289.58 236.729 287.715 236.878 296.441 232.4C301.288 230.012 303.227 228.221 306.061 223.669C308.895 219.192 310.386 215.162 310.909 210.61L311.356 207.252L323.214 207.028C332.685 206.879 335.593 207.103 337.532 207.998C338.875 208.595 340.292 209.117 340.739 209.117C342.38 209.117 347.302 212.326 350.732 215.684C354.983 219.789 357.37 223.669 359.458 229.639C360.949 233.968 360.949 235.759 360.949 428.814C360.949 642.242 361.322 625.452 356.773 634.929C354.759 639.108 348.644 645.451 344.244 647.914C337.159 651.794 343.2 651.645 230.142 651.645C151.986 651.645 124.319 651.421 122.38 650.75C113.58 647.914 106.346 641.869 103.064 634.855C102.095 632.765 101.051 630.526 100.603 629.855C100.231 629.034 99.9322 551.797 99.9322 429.337C99.9322 241.281 100.007 230.012 101.275 227.251C104.109 220.834 109.031 214.565 112.834 212.401C121.783 207.326 123.498 206.953 136.475 207.103L148.034 207.252L148.258 210.237Z" fill="black"/>
    <path d="M649.559 225.61C640.685 226.356 627.708 229.714 621.593 232.848C618.013 234.714 617.193 235.087 616 235.609C611.824 237.326 603.173 243.445 595.417 250.161C592.583 252.624 584.23 262.773 581.919 266.504C578.115 272.773 571.254 287.399 571.254 289.19C571.254 289.862 570.956 290.608 570.508 290.832C570.136 291.056 569.763 292.325 569.763 293.519C569.763 294.787 569.39 296.504 568.868 297.399C566.407 301.877 564.766 325.16 565.885 340.01C566.929 354.189 567.749 359.786 568.868 361.875C569.39 362.771 569.763 364.487 569.763 365.756C569.763 366.95 570.136 368.219 570.508 368.442C570.956 368.666 571.254 369.562 571.254 370.308C571.254 373.368 577.668 386.203 583.485 394.934C586.841 399.86 598.474 411.949 603.769 415.829C608.99 419.785 617.342 424.784 618.536 424.784C619.058 424.784 619.952 425.307 620.474 425.904C620.997 426.501 622.19 427.023 623.159 427.023C624.054 427.023 625.098 427.322 625.322 427.769C625.546 428.217 626.366 428.516 627.037 428.516C627.708 428.516 629.274 429.038 630.468 429.635C631.586 430.232 633.227 430.754 634.047 430.754C634.793 430.754 636.359 431.202 637.478 431.799C640.61 433.366 648.59 434.038 664.474 434.038C679.241 434.038 687.444 433.292 690.352 431.65C691.247 431.128 692.739 430.754 693.708 430.754C694.678 430.754 695.797 430.456 696.169 430.083C696.617 429.71 698.929 428.74 701.39 427.919C707.058 425.978 718.915 419.859 720.407 418.068C720.63 417.77 722.271 416.576 724.136 415.307C728.908 412.024 740.393 399.86 744.42 393.74C748 388.293 752.922 378.89 755.085 373.293C755.756 371.427 756.651 369.189 757.024 368.219C757.397 367.248 757.695 365.681 757.695 364.636C757.695 363.592 758.068 362.025 758.59 361.129C760.902 356.95 762.542 333.667 761.498 320.458C760.454 306.877 759.708 301.653 758.59 299.638C758.068 298.742 757.695 297.026 757.695 295.757C757.695 294.563 757.397 293.295 756.949 293.071C756.576 292.847 756.203 291.877 756.203 290.907C756.203 290.011 755.681 288.593 755.085 287.772C754.488 287.026 753.966 285.832 753.966 285.161C753.966 283.22 747.403 271.131 742.929 264.713C735.919 254.639 724.583 243.893 715.186 238.221C711.308 235.983 702.136 231.505 701.241 231.505C700.793 231.505 699.451 231.057 698.258 230.46C696.244 229.416 694.454 228.893 686.474 227.027C678.42 225.087 662.386 224.49 649.559 225.61ZM679.763 261.877C685.729 263.519 688.488 264.639 696.095 268.818C699.674 270.833 708.997 280.086 711.905 284.564C713.098 286.355 714.291 287.996 714.515 288.22C715.559 289.041 720.854 301.056 721.451 303.892C721.6 304.936 722.122 307.1 722.569 308.742C725.18 319.19 726.149 332.697 724.881 339.712C724.359 342.398 723.688 346.428 723.39 348.667C721.824 359.189 716.902 370.084 709.519 379.263C706.834 382.547 704.447 385.233 704.149 385.233C703.851 385.233 702.136 386.576 700.346 388.143C696.99 391.203 687.369 396.427 685.207 396.427C684.536 396.427 683.715 396.725 683.491 397.173C683.268 397.546 682.074 397.919 680.956 397.919C679.763 397.919 677.6 398.442 676.183 399.039C674.244 399.86 670.739 400.158 664.102 400.158C657.464 400.158 653.959 399.86 652.02 399.039C650.603 398.442 648.515 397.919 647.471 397.919C644.786 397.919 633.525 392.322 628.678 388.591C621.742 383.218 614.807 374.562 611.227 366.95C610.481 365.308 609.437 363.144 608.915 362.099C608.393 361.054 607.573 358.368 607.051 356.129C606.603 353.89 605.708 350.458 605.112 348.592C603.695 344.189 603.993 312.175 605.485 306.877C606.007 305.011 606.827 302.175 607.274 300.533C609.81 291.131 616.969 280.161 625.024 273.37C631.363 268.071 642.997 262.101 647.173 262.101C648.291 262.101 649.708 261.728 650.305 261.355C651.722 260.385 675.736 260.833 679.763 261.877Z" fill="black"/>
    <path d="M1020.58 278.892C1010.36 280.011 1005.51 280.982 1004.32 282.176C1003.87 282.623 1002.98 282.996 1002.38 282.996C1000.59 282.996 991.789 287.549 986.942 290.981C976.277 298.519 964.42 314.787 961.586 325.906C961.362 326.727 960.915 328.07 960.542 328.891C957.633 336.279 956.515 364.786 958.677 374.786C960.84 384.561 961.81 387.546 965.986 396.427C969.267 403.516 973.816 409.636 980.752 416.128C988.806 423.74 994.027 427.023 1004.17 430.978C1017 435.978 1045.93 436.202 1058.98 431.426C1064.05 429.56 1069.87 426.575 1074.35 423.516C1078.82 420.382 1090.3 409.039 1090.3 407.695C1090.3 407.248 1091.27 405.531 1092.47 403.74C1093.59 401.949 1095.15 398.815 1095.9 396.8C1096.64 394.71 1097.54 392.696 1097.84 392.322C1098.14 391.875 1098.51 390.382 1098.66 388.964L1098.88 386.352L1081.8 386.129C1066.66 385.979 1064.58 386.129 1063.31 387.173C1062.56 387.92 1061.97 389.039 1061.97 389.711C1061.97 391.576 1052.35 400.531 1048.47 402.248C1039.67 406.128 1029.82 407.248 1023.56 405.009C1021.92 404.412 1020.05 403.889 1019.38 403.889C1016.77 403.889 1007.23 397.919 1003.95 394.263C999.023 388.74 995.145 381.054 994.027 374.786C993.654 372.92 993.206 370.308 992.908 369.039L992.46 366.577L1046.38 366.428L1100.37 366.204L1100.6 352.025C1100.75 340.906 1100.52 337.1 1099.63 334.339C1099.03 332.398 1098.51 330.16 1098.51 329.339C1098.51 328.518 1097.99 326.578 1097.31 325.01C1096.64 323.443 1095.82 321.503 1095.52 320.682C1094.11 316.951 1089.86 309.115 1086.95 305.011C1081.06 296.728 1071.14 288.668 1061.59 284.19C1059.95 283.444 1057.94 282.474 1057.12 282.026C1051.6 279.116 1033.55 277.549 1020.58 278.892ZM1035.94 307.175C1039 307.697 1043.4 309.041 1045.63 310.16C1050.33 312.548 1058.68 320.831 1060.77 325.16C1061.52 326.801 1062.64 329.04 1063.16 330.16C1063.76 331.204 1064.2 332.846 1064.2 333.667C1064.2 334.563 1064.58 335.906 1065.1 336.652C1065.55 337.398 1065.69 338.592 1065.47 339.264C1065.02 340.383 1061.82 340.458 1029.75 340.309C994.996 340.085 994.474 340.085 994.549 338.592C994.698 336.727 997.233 329.413 998.65 327.025C999.023 326.428 999.843 324.787 1000.51 323.369C1002.16 320.234 1010.28 312.026 1013.19 310.682C1014.39 310.16 1016.03 309.339 1016.85 308.891C1018.19 308.22 1026.17 306.503 1029.15 306.28C1029.75 306.205 1032.81 306.578 1035.94 307.175Z" fill="black"/>
    <path d="M858.373 278.967C848.007 279.862 836.298 285.384 828.169 293.22C825.037 296.205 822.129 298.444 821.681 298.22C821.234 297.922 821.01 294.787 821.159 290.459C821.308 286.429 821.234 282.922 820.936 282.623C820.488 282.101 788.346 281.952 787.824 282.474C787.6 282.623 787.525 327.772 787.525 382.696V482.619L804.454 482.992C813.851 483.216 821.681 483.291 822.054 483.141C822.353 482.992 822.576 468.664 822.576 451.276C822.576 430.008 822.8 419.486 823.397 419.188C823.769 418.889 825.708 420.158 827.647 421.949C833.241 427.172 841.519 431.575 848.678 433.068C860.461 435.605 886.414 434.784 890.814 431.799C891.634 431.202 892.902 430.754 893.573 430.754C894.319 430.754 896.258 429.934 897.898 428.889C899.539 427.844 901.105 427.023 901.478 427.023C901.851 427.023 904.088 425.605 906.549 423.964C911.471 420.531 918.332 413.665 922.508 407.994C925.491 403.964 930.786 393.442 932.203 388.591C932.725 386.949 933.471 384.785 933.844 383.741C935.485 379.636 936.23 371.502 936.23 357.622C936.23 343.667 935.485 335.906 933.844 331.13C933.397 329.861 932.502 327.025 931.756 324.787C926.163 307.474 912.664 292.026 896.407 284.414C890.291 281.504 888.278 280.758 886.563 280.758C885.593 280.758 884.475 280.459 884.102 280.086C883.281 279.34 863.891 278.519 858.373 278.967ZM873.661 312.921C877.166 313.891 884.027 317.1 886.488 319.115C888.949 320.981 893.647 327.548 895.214 331.13C895.885 332.772 897.003 335.085 897.6 336.204C898.197 337.398 898.644 338.965 898.644 339.712C898.644 340.533 899.166 343.07 899.763 345.458C901.03 350.383 901.254 362.547 900.061 366.95C899.614 368.592 899.017 371.278 898.644 372.92C897.078 380.308 893.722 386.203 887.681 392.099C882.908 396.725 877.315 400.158 874.63 400.158C873.661 400.158 872.468 400.531 871.946 401.054C870.753 402.248 856.508 402.695 852.407 401.651C850.542 401.203 848.23 400.606 847.186 400.382C844.129 399.636 836 394.263 833.091 391.054C829.885 387.546 824.814 378.218 824.814 375.905C824.814 374.935 824.291 372.995 823.695 371.577C822.875 369.562 822.576 365.905 822.576 357.622C822.576 349.338 822.875 345.682 823.695 343.667C824.291 342.249 824.814 340.234 824.814 339.264C824.814 335.831 829.81 327.324 834.807 322.324C841.891 315.085 846.739 312.921 858 312.175C865.607 311.653 869.41 311.802 873.661 312.921Z" fill="black"/>
    <path d="M1193.59 279.041C1191.58 279.191 1189.57 279.638 1189.19 280.086C1188.75 280.459 1187.78 280.758 1186.88 280.758C1185.99 280.758 1184.64 281.28 1183.82 281.877C1183.08 282.474 1182.03 282.996 1181.51 282.996C1179.57 282.996 1170.92 288.892 1166.89 292.922C1164.51 295.31 1162.12 297.101 1161.6 296.951C1160.85 296.653 1160.7 294.787 1161 289.414C1161.23 284.34 1161.08 282.25 1160.48 282.25C1160.03 282.25 1152.35 282.176 1143.48 282.176H1127.22V356.652V431.128H1144.37H1161.52L1161.97 385.606C1162.35 342.547 1162.72 335.458 1164.66 331.876C1165.1 331.055 1166.07 328.966 1166.75 327.249C1168.31 323.518 1175.1 316.802 1179.42 314.787C1181.06 314.041 1183 313.07 1183.67 312.772C1184.42 312.399 1188.89 312.1 1193.59 312.1C1201.5 312.1 1202.62 312.25 1206.87 314.264C1209.4 315.458 1212.68 317.697 1214.18 319.264C1217.23 322.548 1221.56 330.234 1221.56 332.398C1221.56 333.219 1222.01 334.562 1222.53 335.458C1223.2 336.727 1223.5 348.517 1223.8 384.338L1224.17 431.575L1241.32 431.501C1250.72 431.501 1258.62 431.202 1258.85 430.904C1259.07 430.605 1259.07 405.83 1258.85 375.905C1258.47 325.981 1258.32 321.205 1257.13 319.04C1256.46 317.697 1255.86 315.981 1255.86 315.085C1255.86 314.264 1255.57 312.996 1255.19 312.25C1254.82 311.578 1253.48 308.891 1252.28 306.354C1247.88 297.548 1238.93 287.996 1232.52 285.161C1231.63 284.787 1230.36 284.19 1229.76 283.817C1228.2 282.922 1223.87 281.131 1220.81 280.086C1218.05 279.191 1199.78 278.444 1193.59 279.041Z" fill="black"/>
    <path d="M633.898 480.38C631.661 480.977 628.827 481.425 627.634 481.5C625.173 481.5 621.145 482.619 618.013 484.186C616.82 484.783 615.478 485.231 614.956 485.231C613.613 485.231 602.8 490.902 599.891 493.067C598.549 494.111 597.206 494.932 596.834 494.932C595.715 494.932 587.959 503.439 585.2 507.693C581.62 513.141 578.115 520.902 577.518 524.708C577.22 526.424 576.698 527.991 576.4 528.215C575.43 528.812 575.579 551.424 576.549 554.558C580.203 566.125 580.874 567.543 585.945 574.557C591.166 581.721 602.874 590.005 610.034 591.572C611.227 591.87 612.42 592.393 612.644 592.766C612.942 593.139 613.837 593.438 614.732 593.438C615.627 593.438 617.64 593.885 619.356 594.482C623.83 595.975 629.125 597.169 631.884 597.169C633.152 597.243 635.091 597.691 636.135 598.288C637.179 598.885 639.566 599.333 641.505 599.408C643.444 599.408 645.905 599.781 647.098 600.228C648.217 600.676 651.2 601.348 653.661 601.721C662.386 602.915 666.562 603.736 668.054 604.557C668.874 605.004 670.291 605.378 671.112 605.378C672.006 605.378 673.274 605.676 674.02 606.049C674.691 606.497 676.928 607.542 678.867 608.437C684.088 610.974 687.891 614.482 690.128 619.034C691.769 622.392 692.067 624.109 692.067 629.332C692.067 637.765 690.576 641.795 685.356 647.093C683.118 649.406 679.912 651.944 678.271 652.69C676.63 653.511 674.393 654.556 673.274 655.153C672.23 655.675 670.44 656.123 669.471 656.123C668.427 656.123 667.308 656.421 667.084 656.869C666.488 657.839 639.342 657.839 638.745 656.869C638.522 656.496 637.403 656.123 636.359 656.123C634.569 656.123 632.705 655.451 625.695 652.168C621.891 650.451 613.464 642.69 611.674 639.332C609.437 635.153 607.796 629.705 607.796 626.497C607.796 624.482 607.423 623.288 606.901 623.213C606.379 623.213 598.251 623.213 588.779 623.138H571.627L571.403 626.571C571.254 628.437 571.552 631.72 572 633.884C572.447 636.049 573.044 638.81 573.193 640.078C573.417 641.272 574.013 643.287 574.61 644.556C575.132 645.75 575.952 647.765 576.474 649.033C578.712 654.257 579.979 656.72 582.515 660.227C585.722 664.63 594.149 673.063 598.698 676.272C603.173 679.48 612.793 684.48 614.434 684.48C615.179 684.48 616.223 684.928 616.671 685.525C617.118 686.122 618.61 686.719 619.952 686.943C621.295 687.167 623.83 687.764 625.695 688.212C632.779 690.077 634.569 690.376 644.189 691.271C652.02 692.018 656.047 692.018 663.952 691.271C669.322 690.749 674.542 690.003 675.512 689.63C676.481 689.256 678.345 688.958 679.688 688.958C680.956 688.958 682.745 688.436 683.566 687.838C684.312 687.241 685.579 686.719 686.325 686.719C687.145 686.719 688.637 686.271 689.681 685.674C690.8 685.152 693.559 683.734 695.796 682.54C700.793 680.003 709.518 673.66 712.651 670.227C719.064 663.138 724.583 652.615 726.522 643.436C727.715 637.616 728.088 622.541 727.118 616.944C726.298 612.094 724.881 607.542 723.315 604.482C722.942 603.736 722.644 602.84 722.644 602.467C722.644 600.9 716.603 592.841 712.427 588.885C708.4 585.005 698.928 578.512 697.362 578.512C696.989 578.512 695.573 577.915 694.156 577.244C689.532 574.93 689.084 574.781 687.444 574.781C686.474 574.707 684.908 574.259 683.864 573.662C682.82 573.065 680.956 572.617 679.688 572.542C678.42 572.542 676.108 572.02 674.691 571.423C673.2 570.826 670.888 570.304 669.62 570.304C668.278 570.304 666.189 570.005 664.922 569.632C661.864 568.662 656.047 567.393 651.423 566.572C649.41 566.199 645.383 565.378 642.474 564.707C639.64 564.035 636.061 563.214 634.644 562.916C633.227 562.617 631.362 562.02 630.542 561.573C629.722 561.125 626.813 559.707 624.054 558.364C620.474 556.573 618.386 554.856 616.447 552.319C614.956 550.304 613.762 548.215 613.762 547.618C613.762 547.021 613.464 546.274 613.017 546.05C612.644 545.827 612.271 542.767 612.271 539.334C612.271 531.722 614.359 526.424 619.356 521.872C622.562 518.962 631.362 514.335 633.823 514.335C634.569 514.335 636.434 513.812 637.851 513.215C639.789 512.394 643.22 512.096 649.559 512.096C655.898 512.096 659.328 512.394 661.267 513.215C662.684 513.812 664.847 514.335 666.04 514.335C667.234 514.335 668.8 514.633 669.545 515.006C670.217 515.454 672.379 516.499 674.318 517.394C678.495 519.335 686.623 527.618 688.637 531.872C689.457 533.513 690.278 535.379 690.576 535.976C690.874 536.648 691.396 538.215 691.695 539.558L692.217 541.946H710.115H728.088L727.491 538.737C727.267 537.021 726.82 534.409 726.596 532.991C726.447 531.573 725.776 529.334 725.179 527.991C724.583 526.723 724.135 525.155 724.135 524.484C724.135 522.394 718.095 511.797 713.918 506.648C708.027 499.335 696.318 490.156 689.83 487.768C689.234 487.544 687.742 486.873 686.474 486.35C685.281 485.828 682.969 484.858 681.403 484.186C679.837 483.515 677.749 482.992 676.779 482.992C675.81 482.992 674.766 482.619 674.542 482.246C674.318 481.798 672.976 481.5 671.708 481.5C670.366 481.5 666.935 480.977 664.101 480.38C657.464 478.962 639.566 478.962 633.898 480.38Z" fill="black"/>
    <path d="M1028.78 480.903C1028.56 481.425 1028.48 528.215 1028.56 584.856L1028.78 687.839L1045.86 688.062L1062.86 688.212L1062.64 681.421C1062.41 676.645 1062.64 674.481 1063.23 674.257C1063.68 674.107 1065.32 675.301 1066.81 676.869C1072.48 683.063 1085.68 689.331 1096.27 690.898C1104.92 692.167 1127 691.271 1128.04 689.63C1128.26 689.256 1129.08 688.958 1129.98 688.958C1131.92 688.958 1135.95 687.242 1142.88 683.436C1152.28 678.212 1161.3 668.436 1166.67 657.615C1168.24 654.556 1169.95 651.048 1170.55 649.929C1171.15 648.735 1171.59 647.018 1171.59 646.123C1171.59 645.153 1171.82 644.183 1172.11 643.884C1172.86 643.138 1174.65 636.347 1175.02 632.616C1175.17 630.974 1175.69 626.646 1176.14 623.064C1177.11 615.527 1175.99 598.139 1174.13 591.199C1171.29 580.527 1171.74 581.871 1166.75 571.871C1161.75 561.871 1155.63 554.483 1147.8 548.812C1140.42 543.513 1136.69 541.498 1130.87 539.707C1129.23 539.26 1127 538.439 1125.73 537.991C1124.46 537.469 1117.6 537.021 1109.92 536.872C1098.81 536.722 1095.9 536.872 1094.11 537.842C1092.84 538.439 1090.9 538.961 1089.63 538.961C1088.44 538.961 1087.25 539.26 1087.02 539.633C1086.8 540.006 1085.76 540.454 1084.79 540.752C1081.5 541.573 1071.21 547.842 1068.83 550.453C1066.59 552.916 1065.69 553.438 1064.5 552.916C1064.28 552.841 1064.05 536.498 1063.98 516.574L1063.83 480.38L1046.45 480.156C1032.96 480.007 1029 480.156 1028.78 480.903ZM1111.93 569.184C1115.88 569.931 1124.61 574.632 1127.82 577.692C1129.38 579.184 1131.32 581.572 1132.14 582.99C1132.96 584.408 1134.23 586.572 1135.05 587.841C1135.8 589.035 1136.47 590.527 1136.47 591.05C1136.54 591.647 1136.99 593.139 1137.59 594.408C1138.18 595.751 1138.85 598.139 1139.08 599.781C1139.3 601.422 1139.82 605.079 1140.27 607.989C1142.36 621.273 1137.44 639.034 1129.08 648.138C1122.97 654.78 1110.89 659.854 1101.12 659.854C1091.65 659.854 1083.07 656.421 1076.28 649.929C1070.09 643.959 1066.81 638.437 1064.95 630.75C1064.58 629.332 1063.98 626.795 1063.53 625.153C1062.56 621.571 1062.56 610.154 1063.46 605.004C1065.47 593.512 1066.37 591.124 1070.69 584.333C1073.97 579.333 1077.92 575.229 1080.91 573.96C1081.73 573.587 1083 572.99 1083.59 572.617C1087.55 570.378 1089.71 569.557 1091.57 569.557C1092.69 569.557 1094.18 569.184 1094.78 568.811C1095.97 567.99 1107.31 568.214 1111.93 569.184Z" fill="black"/>
    <path d="M1201.35 480.903C1201.2 481.425 1201.13 528.29 1201.27 585.08L1201.42 688.212L1219.17 688.062C1228.87 687.913 1236.77 687.615 1236.7 687.242C1236.55 686.943 1236.47 640.228 1236.47 583.363V480.007H1219.02C1205.67 480.007 1201.5 480.231 1201.35 480.903Z" fill="black"/>
    <path d="M769.179 505.753C769.03 506.126 768.807 513.887 768.732 522.917L768.508 539.334L755.83 539.409L743.152 539.483V554.334V569.184L755.83 569.557L768.508 569.931L769.03 607.243C769.552 645.302 770.074 655.227 771.715 658.138C772.163 659.033 772.61 660.75 772.61 662.018C772.61 663.212 772.908 664.406 773.281 664.63C773.579 664.854 774.101 665.973 774.325 667.093C775.071 670.973 780.888 678.51 785.288 681.346C790.061 684.555 793.715 686.346 796.847 687.167C799.01 687.689 838.834 688.809 839.952 688.361C840.251 688.212 840.474 681.794 840.474 673.958V659.854H831.376C819.518 659.854 814.671 658.585 810.42 654.257C805.349 649.183 805.349 648.959 804.901 608.586C804.678 588.811 804.752 571.945 805.051 571.125C805.498 569.632 806.02 569.557 823.024 569.557H840.474L840.325 554.558L840.101 539.558L823.471 539.633C811.39 539.782 806.468 539.558 805.722 538.886C804.827 538.14 804.678 535.081 804.678 521.872L804.827 505.753L800.427 505.604C786.108 505.007 769.403 505.081 769.179 505.753Z" fill="black"/>
    <path d="M1327.08 536.051C1323.43 536.424 1319.03 537.095 1317.39 537.543C1315.75 537.991 1313.59 538.513 1312.54 538.663C1310.45 539.11 1308.07 540.081 1304.86 541.648C1303.67 542.245 1302.4 542.692 1302.1 542.692C1301.73 542.692 1298.89 544.185 1295.84 546.051C1289.35 550.006 1278.46 560.528 1274.58 566.572C1270.85 572.393 1264.81 585.751 1264.81 588.139C1264.81 588.885 1264.29 590.826 1263.62 592.393C1262.58 594.855 1262.35 598.139 1262.43 612.467C1262.43 623.735 1262.73 630.526 1263.32 632.243C1263.84 633.661 1264.52 636.198 1264.81 637.84C1266.08 644.332 1269.96 652.765 1275.63 661.794C1278.61 666.421 1288.6 676.719 1293.15 679.779C1298 682.988 1305.08 686.719 1306.5 686.719C1307.25 686.719 1308.07 687.018 1308.44 687.391C1309.48 688.286 1316.42 690.152 1324.1 691.495C1331.56 692.838 1341.78 692.988 1346.85 691.868C1348.71 691.495 1352.07 690.824 1354.31 690.525C1362.43 689.182 1368.47 686.794 1376.68 681.645C1381.82 678.436 1392.49 667.988 1395.17 663.585C1396.29 661.72 1397.56 659.556 1398.08 658.735C1398.6 657.914 1399.2 656.72 1399.42 656.123C1399.65 655.526 1400.39 654.033 1400.99 652.914C1401.51 651.72 1402.03 650.153 1402.03 649.407C1402.03 648.66 1402.41 647.765 1402.78 647.541C1403.23 647.317 1403.53 646.422 1403.53 645.601C1403.53 644.257 1402.85 644.183 1385.85 644.183H1368.1L1366.01 647.839C1362.81 653.586 1357.81 657.541 1349.31 660.973C1344.76 662.839 1329.84 662.839 1324.33 660.899C1315.75 657.914 1306.28 649.705 1302.92 642.168C1301.95 640.228 1300.91 637.914 1300.39 637.093C1299.42 635.302 1298.3 630.004 1298.15 626.273L1298 623.661L1351.69 623.288L1405.39 622.915L1405.61 609.855C1405.76 599.557 1405.61 595.826 1404.64 592.318C1403.97 589.856 1403.08 586.497 1402.63 584.856C1400.32 575.677 1390.7 559.558 1383.69 553.065C1380.18 549.856 1371.38 544.11 1366.98 542.17C1364.75 541.2 1362.28 540.08 1361.61 539.707C1360.87 539.26 1359.6 538.961 1358.78 538.961C1357.88 538.961 1356.32 538.513 1355.2 537.916C1354.08 537.394 1349.98 536.722 1346.1 536.424C1342.22 536.125 1337.82 535.827 1336.41 535.678C1334.99 535.528 1330.81 535.678 1327.08 536.051ZM1342.67 564.856C1350.58 567.393 1353.41 569.11 1358.93 574.557C1365.12 580.602 1369.22 588.662 1369.22 594.706V597.915H1334.62C1300.91 597.915 1299.94 597.84 1299.49 596.423C1299.27 595.676 1299.57 593.96 1300.16 592.766C1300.83 591.497 1301.36 590.005 1301.36 589.408C1301.36 588.438 1302.55 585.677 1304.49 582.244C1304.79 581.647 1305.38 580.378 1305.83 579.483C1307.02 576.722 1312.39 571.274 1316.12 569.035C1324.7 564.035 1335.06 562.393 1342.67 564.856Z" fill="black"/>
    <path d="M919.525 536.648C916.02 536.872 912.44 537.543 911.545 537.991C910.651 538.513 909.084 538.961 908.04 538.961C906.922 538.961 905.505 539.26 904.759 539.633C904.088 539.931 900.508 541.722 896.854 543.439C889.322 547.095 881.417 553.961 877.464 560.229C874.257 565.229 871.051 572.244 871.051 574.11C871.051 574.93 870.528 577.244 869.857 579.333C867.844 585.453 867.247 585.229 886.264 585.229H903.118L903.566 583.139C905.43 574.856 911.844 567.99 920.495 565.005C924.745 563.513 940.705 562.99 941.525 564.259C941.749 564.632 943.017 565.229 944.284 565.528C946.969 566.05 951.891 568.96 954.278 571.348C956.589 573.662 959.796 579.035 959.796 580.602C959.796 581.348 960.169 582.318 960.542 582.691C960.989 583.139 961.288 585.826 961.139 588.96L960.915 594.408L957.559 595.378C955.695 595.975 952.488 596.423 950.4 596.423C948.312 596.423 945.627 596.721 944.434 597.169C942.345 597.84 933.62 598.885 920.644 600.154C917.362 600.452 913.708 601.049 912.589 601.572C911.396 602.019 909.383 602.393 908.115 602.393C906.773 602.467 904.908 602.915 903.864 603.512C902.82 604.109 900.956 604.557 899.613 604.631C898.345 604.631 897.003 605.004 896.779 605.378C896.556 605.751 895.661 606.124 894.915 606.124C894.095 606.124 892.23 606.646 890.664 607.318C889.098 607.989 887.01 608.96 885.966 609.407C881.044 611.497 874.257 617.542 871.125 622.541C869.932 624.407 868.067 628.511 867.023 631.72C865.159 637.168 865.01 638.287 865.234 647.765C865.383 654.033 865.905 659.033 866.501 660.6C868.515 665.749 869.037 667.018 870.23 669.481C871.722 672.615 880.149 681.794 882.834 683.212C883.952 683.809 885.891 684.779 887.084 685.45C904.162 694.331 929.518 693.734 947.044 684.107C949.206 682.839 951.891 681.421 952.935 680.824C953.979 680.301 956.217 678.361 958.006 676.57C962.928 671.496 963.525 671.943 963.525 680.749V688.212H979.932H996.339L996.115 634.258C995.891 578.512 995.891 578.587 992.834 571.05C988.434 560.229 983.213 553.513 974.189 546.722C972.325 545.304 963.898 541.125 960.169 539.707C951.444 536.498 937.647 535.454 919.525 536.648ZM960.989 621.646C961.959 622.243 961.213 636.049 960.02 640.451C959.125 643.66 955.695 649.854 953.532 652.317C951.22 654.929 944.359 659.854 943.091 659.854C942.495 659.854 941.823 660.153 941.6 660.526C940.928 661.496 934.142 663.361 927.654 664.257C923.254 664.854 920.718 664.779 916.691 664.033C910.278 662.839 907.22 661.123 904.162 657.093C900.21 651.869 900.061 641.347 903.864 635.974C905.878 633.138 911.023 629.258 912.739 629.258C913.41 629.258 914.603 628.81 915.423 628.213C916.989 627.168 919.227 626.795 930.339 625.601C934.067 625.228 938.542 624.556 940.406 624.109C942.271 623.661 946.298 623.288 949.356 623.288C952.786 623.288 955.695 622.84 956.813 622.168C958.901 620.974 959.796 620.825 960.989 621.646Z" fill="black"/>
</svg>
