<svg width="28" height="28" viewBox="0 0 28 28" fill="none" xmlns="http://www.w3.org/2000/svg">
    <path d="M20.8005 7.9665C21.4749 8.6409 21.8121 8.97811 21.9897 9.4069C22.1673 9.8357 22.1673 10.3126 22.1673 11.2663V19.8333C22.1673 22.0332 22.1673 23.1331 21.4839 23.8166C20.8005 24.5 19.7005 24.5 17.5007 24.5H10.5007C8.30076 24.5 7.20082 24.5 6.51741 23.8166C5.83398 23.1331 5.83398 22.0332 5.83398 19.8333V8.16667C5.83398 5.96678 5.83398 4.86683 6.51741 4.18342C7.20082 3.5 8.30076 3.5 10.5007 3.5H14.4009C15.3547 3.5 15.8316 3.5 16.2604 3.67761C16.6892 3.85523 17.0264 4.19243 17.7009 4.86683L20.8005 7.9665Z" stroke="currentColor" stroke-width="2.33333" stroke-linejoin="round"/>
    <path d="M10.5 16.3333L12.3401 18.1734C12.6125 18.4458 13.0542 18.4458 13.3266 18.1734L17.5 14" stroke="currentColor" stroke-width="2.33333" stroke-linecap="round" stroke-linejoin="round"/>
</svg>
