<svg width="15" height="17" viewBox="0 0 15 17" fill="none" xmlns="http://www.w3.org/2000/svg">
    <path fill-rule="evenodd" clip-rule="evenodd" d="M13.1903 2.87899L13.1917 2.88175C13.6914 2.88314 14.1424 3.09066 14.4693 3.42546C14.7934 3.75887 14.9959 4.21956 14.9959 4.72868H14.9986V4.73145V15.1462V15.1475H14.9959C14.9946 15.6567 14.792 16.1201 14.4652 16.4563C14.1397 16.7883 13.69 16.9958 13.193 16.9958V16.9986H13.1903H5.19672H5.19537V16.9958C4.69704 16.9945 4.24462 16.7883 3.9178 16.4521C3.59368 16.1187 3.3911 15.658 3.38975 15.1489C3.38975 11.5575 3.38975 8.32292 3.38975 4.73145V4.73006H3.39246C3.39381 4.21956 3.59773 3.7561 3.92455 3.42131C4.25002 3.08927 4.69839 2.88175 5.19672 2.88037V2.8776H5.19942C7.86261 2.87899 10.5271 2.87899 13.1903 2.87899ZM0.002701 10.4285L0 1.85246V1.85107H0.002701C0.0040515 1.34058 0.207977 0.877116 0.533447 0.542318C0.858918 0.210286 1.30863 0.00276693 1.80562 0.00138346V0H1.80832H9.80193C10.8405 0 11.0039 1.37793 9.80328 1.4056H1.80967H1.80697V1.40283C1.68812 1.40283 1.58008 1.45402 1.50041 1.53703C1.42073 1.61727 1.37076 1.73071 1.37076 1.85107H1.37346V1.85246V2.29102C1.37346 5.00399 1.37346 7.71558 1.37346 10.4272C1.37346 11.5699 0.002701 11.6335 0.002701 10.4285ZM13.6279 15.1475V4.73145V4.72868H13.6306C13.6306 4.60832 13.5806 4.49626 13.4996 4.41463C13.4199 4.33439 13.3105 4.28182 13.1917 4.28182V4.28459H13.1903H5.19672H5.19402V4.28182C5.07518 4.28182 4.96714 4.33439 4.88746 4.41602C4.80778 4.49626 4.75781 4.6097 4.75781 4.73006H4.76051V4.73145V15.1462V15.1489H4.75781C4.75781 15.2707 4.80913 15.3813 4.88881 15.463C4.96849 15.5446 5.07788 15.5958 5.19537 15.5958V15.593H5.19672H13.1903H13.193V15.5958C13.3105 15.5958 13.4199 15.5432 13.4996 15.4616C13.5793 15.3813 13.6292 15.2679 13.6292 15.1475H13.6279Z" fill="currentColor"/>
</svg>
