<svg width="30" height="30" viewBox="0 0 30 30" fill="none" xmlns="http://www.w3.org/2000/svg">
    <path d="M23.8917 6.10781L23.873 14.0766L14.8308 23.1258C14.3152 23.6414 13.8019 23.9039 13.305 23.9039C12.6899 23.8607 12.1153 23.581 11.7019 23.1234L6.87612 18.2953C5.8355 17.257 5.8355 16.2047 6.87612 15.1688L15.9136 6.12656L23.8824 6.10781M26.2261 3.76406L14.9246 3.79219L5.198 13.5188C2.92456 15.7922 3.59722 18.3562 5.198 19.9617L10.0238 24.7875C10.4477 25.2351 10.9557 25.5946 11.5187 25.8456C12.0818 26.0965 12.6888 26.234 13.305 26.25C14.348 26.25 15.4496 25.8258 16.4878 24.7875L26.2144 15.0609L26.2496 3.75L26.2261 3.76406Z" fill="currentColor"/>
    <path d="M19.5236 9.47345C19.7623 9.47277 19.9938 9.55491 20.1787 9.70587C20.3636 9.85682 20.4904 10.0672 20.5375 10.3012C20.5846 10.5352 20.549 10.7783 20.4369 10.9891C20.3248 11.1998 20.1431 11.3651 19.9227 11.4568C19.7023 11.5485 19.457 11.5609 19.2285 11.4919C19 11.423 18.8025 11.2768 18.6696 11.0785C18.5368 10.8802 18.4769 10.6419 18.5001 10.4044C18.5234 10.1668 18.6283 9.94465 18.797 9.7758C18.9896 9.58272 19.2509 9.47397 19.5236 9.47345ZM19.5236 7.1297C18.7427 7.12945 17.986 7.39995 17.3822 7.89512C16.7785 8.39029 16.3651 9.07949 16.2125 9.84528C16.0599 10.6111 16.1776 11.4061 16.5455 12.0948C16.9134 12.7836 17.5087 13.3234 18.23 13.6224C18.9514 13.9215 19.754 13.9611 20.5013 13.7346C21.2486 13.5082 21.8942 13.0296 22.3282 12.3805C22.7622 11.7313 22.9576 10.9518 22.8813 10.1747C22.8049 9.39761 22.4615 8.67103 21.9095 8.11877C21.5967 7.80471 21.2248 7.55564 20.8153 7.38589C20.4059 7.21615 19.9668 7.12908 19.5236 7.1297Z" fill="currentColor"/>
</svg>
